<svg width="1108" height="1056" viewBox="0 0 1108 1056" fill="none" xmlns="http://www.w3.org/2000/svg">
<path d="M1062 527C1062 864.446 891.446 1034.5 554 1034.5C216.554 1034.5 -73.4999 900 26.5003 527C26.5003 189.554 216.554 49 554 49C891.446 49 1212.5 114 1062 527Z" fill="black"/>
<mask id="mask0_45_32" style="mask-type:alpha" maskUnits="userSpaceOnUse" x="0" y="0" width="1108" height="1056">
<rect width="1108" height="1056" rx="203" fill="white"/>
</mask>
<g mask="url(#mask0_45_32)">
<path d="M95.0002 -91.4C61.5335 -86.8667 33.0002 -77.4 7.80017 -62.6C-45.3998 -31.2666 -80.0665 17.1333 -90.8665 75C-93.6665 89.6667 -93.6665 91.2667 -93.6665 526.467C-93.6665 960.333 -93.6665 963.267 -90.9998 978.467C-76.9998 1056.6 -16.9998 1118.33 65.6668 1139.67C92.6002 1146.6 76.8669 1146.47 562.334 1145.93C958.067 1145.53 1013.67 1145.27 1023 1143.4C1047.13 1138.87 1060.6 1134.33 1084.33 1123C1132.87 1099.8 1169.4 1060.87 1189.67 1011C1193.67 1001.27 1199.4 976.467 1201 962.333C1202.07 951.8 1202.33 841 1202.07 519C1201.67 106.733 1201.53 89.1333 1199.13 77C1182.6 -7.39999 1119.4 -70.0666 1031.93 -88.6L1017.67 -91.6666L558.334 -91.7999C305.667 -91.9332 97.2668 -91.6667 95.0002 -91.4ZM593 169.133C611 170.733 632.867 174.6 649.667 179.267C666.2 183.8 666.467 183.933 666.067 185C665.8 185.533 637.134 212.2 602.334 244.333C510.734 328.867 508.067 331.4 497 341.8C491.534 346.867 470.867 366.067 451 384.333C411.534 420.867 365.267 464.067 325 502.2C310.734 515.8 287.934 537.4 274.334 550.2C260.734 563 238.734 584.333 225.4 597.533C211.934 610.733 200.734 621.267 200.467 620.867C200.067 620.6 198.6 614.733 197.134 607.8C187.534 564.067 187.534 503.4 197.134 457.667C223.934 330.067 318.6 224.333 441.667 184.333C472.334 174.333 491 171.133 539.667 167.133C547.8 166.467 574.334 167.4 593 169.133ZM778.067 247.267C806.2 268.867 843.534 310.867 861.667 341.133C872.2 358.733 886.467 388.2 893 406.067C896.2 415 899.667 422.333 900.467 422.333C901.267 422.333 903.4 421.267 905.134 419.933C906.867 418.6 912.867 414.333 918.334 410.467C923.8 406.733 936.334 398.067 946.067 391.267C955.667 384.467 989.667 360.867 1021.4 338.733C1053 316.467 1079.53 298.333 1080.2 298.333C1081 298.333 1077.4 301.533 1072.33 305.267C1051.67 321.133 1022.87 343.667 973 383.533C909.934 433.8 884.467 453 840.334 483.667C822.067 496.467 803.4 509.4 799.134 512.6C794.734 515.667 790.867 518.067 790.6 517.667C790.2 517.4 799.534 507.133 811.134 494.867C851.4 452.733 862.334 440.6 862.334 438.2C862.334 432.6 855 435.267 813.8 455.8C802.2 461.667 792.334 466.2 792.067 465.933C791.8 465.533 795.667 462.067 800.734 457.933C812.334 448.467 814.467 446.067 813.134 443.933C812.067 442.2 811.134 442.6 767.667 459.267C759.267 462.467 746.067 467.533 738.334 470.333C724.067 475.667 690.2 488.467 674.067 494.733C668.6 496.867 665 497.667 665 496.733C665 495.933 666.734 490.733 669 485.133C671.134 479.533 675.134 469.267 677.667 462.333C680.334 455.4 683.934 446.067 685.667 441.667C687.4 437.267 694.467 419 701.4 401C708.334 383 722.2 347 732.334 321C742.334 295 752.734 268.2 755.267 261.667C763.134 241 764.334 238.333 765.4 238.333C766.067 238.333 771.667 242.333 778.067 247.267ZM1086.33 294.867C1086.33 295.133 1085.4 295.8 1084.2 296.2C1083.13 296.6 1082.6 296.467 1083 295.667C1083.8 294.333 1086.33 293.8 1086.33 294.867ZM911.534 471.133C916.067 497 917.8 531.667 915.934 557.533C907.267 674.067 847.667 774.867 747.667 841.667C711.134 866.067 671.267 883.4 629.934 893C581.667 904.067 519.4 903.8 471.134 892.333C453.267 888.067 439.4 883.933 438.067 882.6C437.4 881.933 445.134 874.333 455.267 865.533C465.267 856.867 481.4 842.733 491 834.333C500.467 825.8 518.2 810.2 530.334 799.667C542.467 789 554.467 778.467 557 776.2C559.534 773.933 576.067 759.267 593.667 743.667C611.267 728.067 633.534 708.2 643 699.667C767.134 588.067 767.8 587.533 809.534 549C842.2 518.867 869.8 492.467 891 470.867C899.8 461.933 907.4 454.6 907.8 454.467C908.2 454.467 909.934 461.933 911.534 471.133ZM457 540.067C457 540.2 454.6 546.6 451.534 554.333C448.6 562.067 444.2 573.667 441.667 580.333C439.267 586.867 434.467 599.533 431 608.333C427.534 617.133 422.733 629.667 420.333 636.333C417.933 642.867 412.2 657.933 407.667 669.667C403.134 681.4 398.334 693.933 397 697.667C395.667 701.267 389.8 716.6 383.934 731.667C367.667 773.8 349.534 821.133 347.534 826.6C346.6 829.4 345.267 831.667 344.6 831.667C342.467 831.667 324.867 818.467 311.134 806.467C271.267 771.933 235.8 721.133 215.667 669.667C212.467 661.533 209.4 654.467 208.867 653.8C207.667 652.467 179.267 670.733 91.6668 728.867C56.8668 752.067 27.5335 771.533 26.3335 772.2C21.6668 774.867 28.7335 769.4 65.0002 742.333C85.9335 726.6 109 709.267 116.334 703.667C123.667 698.067 136.334 688.467 144.334 682.333C152.467 676.2 166.2 665.667 175 659C183.8 652.2 201.134 639.667 213.667 631C242.2 611 333.667 550.467 336.734 549.4C337.934 549 319 568.467 294.6 592.467C268.734 618.067 250.334 637.267 250.334 638.733C250.334 644.467 255.667 642.467 299 619.667C305.667 616.2 329.267 604.067 351.667 592.6C374.067 581.133 406.467 564.6 423.667 555.8C451.934 541.267 457 538.867 457 540.067Z" fill="white"/>
</g>
<rect x="479.679" y="523.232" width="113.137" height="113.137" transform="rotate(-46 479.679 523.232)" fill="#EB2933"/>
<rect x="536.444" y="522.241" width="32.847" height="32.847" transform="rotate(-46 536.444 522.241)" fill="#F9F9F9"/>
</svg>
