<svg width="1297" height="1239" viewBox="0 0 1297 1239" fill="none" xmlns="http://www.w3.org/2000/svg">
<path d="M1171.5 613C1171.5 950.446 988.446 1102.5 651 1102.5C313.554 1102.5 28 1056 128 613C128 275.554 313.554 132 651 132C988.446 132 1248.5 178 1171.5 613Z" fill="#FFFCFC"/>
<mask id="mask0_45_27" style="mask-type:alpha" maskUnits="userSpaceOnUse" x="94" y="92" width="1108" height="1056">
<rect x="94" y="92" width="1108" height="1056" rx="203" fill="white"/>
</mask>
<g mask="url(#mask0_45_27)">
<path d="M189 0.600001C155.534 5.13333 127 14.6 101.8 29.4C48.6002 60.7334 13.9335 109.133 3.1335 167C0.333496 181.667 0.333496 183.267 0.333496 618.467C0.333496 1052.33 0.333496 1055.27 3.00016 1070.47C17.0002 1148.6 77.0002 1210.33 159.667 1231.67C186.6 1238.6 170.867 1238.47 656.334 1237.93C1052.07 1237.53 1107.67 1237.27 1117 1235.4C1141.13 1230.87 1154.6 1226.33 1178.33 1215C1226.87 1191.8 1263.4 1152.87 1283.67 1103C1287.67 1093.27 1293.4 1068.47 1295 1054.33C1296.07 1043.8 1296.33 933 1296.07 611C1295.67 198.733 1295.53 181.133 1293.13 169C1276.6 84.6 1213.4 21.9334 1125.93 3.40005L1111.67 0.3334L652.334 0.200099C399.667 0.0667654 191.267 0.333334 189 0.600001ZM687 261.133C705 262.733 726.867 266.6 743.667 271.267C760.2 275.8 760.467 275.933 760.067 277C759.8 277.533 731.134 304.2 696.334 336.333C604.734 420.867 602.067 423.4 591 433.8C585.534 438.867 564.867 458.067 545 476.333C505.534 512.867 459.267 556.067 419 594.2C404.734 607.8 381.934 629.4 368.334 642.2C354.734 655 332.734 676.333 319.4 689.533C305.934 702.733 294.734 713.267 294.467 712.867C294.067 712.6 292.6 706.733 291.134 699.8C281.534 656.067 281.534 595.4 291.134 549.667C317.934 422.067 412.6 316.333 535.667 276.333C566.334 266.333 585 263.133 633.667 259.133C641.8 258.467 668.334 259.4 687 261.133ZM872.067 339.267C900.2 360.867 937.534 402.867 955.667 433.133C966.2 450.733 980.467 480.2 987 498.067C990.2 507 993.667 514.333 994.467 514.333C995.267 514.333 997.4 513.267 999.134 511.933C1000.87 510.6 1006.87 506.333 1012.33 502.467C1017.8 498.733 1030.33 490.067 1040.07 483.267C1049.67 476.467 1083.67 452.867 1115.4 430.733C1147 408.467 1173.53 390.333 1174.2 390.333C1175 390.333 1171.4 393.533 1166.33 397.267C1145.67 413.133 1116.87 435.667 1067 475.533C1003.93 525.8 978.467 545 934.334 575.667C916.067 588.467 897.4 601.4 893.134 604.6C888.734 607.667 884.867 610.067 884.6 609.667C884.2 609.4 893.534 599.133 905.134 586.867C945.4 544.733 956.334 532.6 956.334 530.2C956.334 524.6 949 527.267 907.8 547.8C896.2 553.667 886.334 558.2 886.067 557.933C885.8 557.533 889.667 554.067 894.734 549.933C906.334 540.467 908.467 538.067 907.134 535.933C906.067 534.2 905.134 534.6 861.667 551.267C853.267 554.467 840.067 559.533 832.334 562.333C818.067 567.667 784.2 580.467 768.067 586.733C762.6 588.867 759 589.667 759 588.733C759 587.933 760.734 582.733 763 577.133C765.134 571.533 769.134 561.267 771.667 554.333C774.334 547.4 777.934 538.067 779.667 533.667C781.4 529.267 788.467 511 795.4 493C802.334 475 816.2 439 826.334 413C836.334 387 846.734 360.2 849.267 353.667C857.134 333 858.334 330.333 859.4 330.333C860.067 330.333 865.667 334.333 872.067 339.267ZM1180.33 386.867C1180.33 387.133 1179.4 387.8 1178.2 388.2C1177.13 388.6 1176.6 388.467 1177 387.667C1177.8 386.333 1180.33 385.8 1180.33 386.867ZM1005.53 563.133C1010.07 589 1011.8 623.667 1009.93 649.533C1001.27 766.067 941.667 866.867 841.667 933.667C805.134 958.067 765.267 975.4 723.934 985C675.667 996.067 613.4 995.8 565.134 984.333C547.267 980.067 533.4 975.933 532.067 974.6C531.4 973.933 539.134 966.333 549.267 957.533C559.267 948.867 575.4 934.733 585 926.333C594.467 917.8 612.2 902.2 624.334 891.667C636.467 881 648.467 870.467 651 868.2C653.534 865.933 670.067 851.267 687.667 835.667C705.267 820.067 727.534 800.2 737 791.667C861.134 680.067 861.8 679.533 903.534 641C936.2 610.867 963.8 584.467 985 562.867C993.8 553.933 1001.4 546.6 1001.8 546.467C1002.2 546.467 1003.93 553.933 1005.53 563.133ZM551 632.067C551 632.2 548.6 638.6 545.534 646.333C542.6 654.067 538.2 665.667 535.667 672.333C533.267 678.867 528.467 691.533 525 700.333C521.534 709.133 516.733 721.667 514.333 728.333C511.933 734.867 506.2 749.933 501.667 761.667C497.134 773.4 492.334 785.933 491 789.667C489.667 793.267 483.8 808.6 477.934 823.667C461.667 865.8 443.534 913.133 441.534 918.6C440.6 921.4 439.267 923.667 438.6 923.667C436.467 923.667 418.867 910.467 405.134 898.467C365.267 863.933 329.8 813.133 309.667 761.667C306.467 753.533 303.4 746.467 302.867 745.8C301.667 744.467 273.267 762.733 185.667 820.867C150.867 844.067 121.534 863.533 120.334 864.2C115.667 866.867 122.733 861.4 159 834.333C179.934 818.6 203 801.267 210.334 795.667C217.667 790.067 230.334 780.467 238.334 774.333C246.467 768.2 260.2 757.667 269 751C277.8 744.2 295.134 731.667 307.667 723C336.2 703 427.667 642.467 430.734 641.4C431.934 641 413 660.467 388.6 684.467C362.734 710.067 344.334 729.267 344.334 730.733C344.334 736.467 349.667 734.467 393 711.667C399.667 708.2 423.267 696.067 445.667 684.6C468.067 673.133 500.467 656.6 517.667 647.8C545.934 633.267 551 630.867 551 632.067Z" fill="black"/>
</g>
<rect x="649.459" y="699.053" width="113.137" height="113.137" transform="rotate(-136 649.459 699.053)" fill="#EB2933"/>
<rect x="648.468" y="642.287" width="32.847" height="32.847" transform="rotate(-136 648.468 642.287)" fill="#F9F9F9"/>
</svg>
