<svg width="834" height="794" viewBox="0 0 834 794" fill="none" xmlns="http://www.w3.org/2000/svg">
<path d="M810.166 391.737C810.166 645.461 672.529 759.789 418.805 759.789C165.082 759.789 -49.6248 724.826 25.5645 391.737C25.5645 138.013 165.082 30.0759 418.805 30.0759C672.529 30.0759 868.062 64.663 810.166 391.737Z" fill="#FFFCFC"/>
<mask id="mask0_49_17" style="mask-type:alpha" maskUnits="userSpaceOnUse" x="0" y="0" width="834" height="794">
<rect width="833.099" height="794" rx="203" fill="white"/>
</mask>
<g mask="url(#mask0_49_17)">
<path d="M71.4301 -68.7234C46.2667 -65.3148 24.8127 -58.1968 5.86493 -47.0688C-34.1358 -23.5094 -60.2015 12.8822 -68.3219 56.3918C-70.4272 67.4196 -70.4272 68.6227 -70.4272 395.847C-70.4272 722.069 -70.4272 724.274 -68.4222 735.703C-57.8957 794.451 -12.782 840.868 49.3745 856.908C69.6255 862.121 57.7958 862.021 422.815 861.62C720.365 861.319 762.17 861.119 769.188 859.715C787.333 856.307 797.459 852.898 815.304 844.377C851.796 826.933 879.265 797.659 894.503 760.165C897.511 752.846 901.822 734.199 903.025 723.572C903.827 715.652 904.027 632.343 903.827 390.233C903.526 80.2519 903.426 67.0186 901.621 57.8956C889.19 -5.56426 841.67 -52.6829 775.905 -66.618L765.178 -68.9238L419.808 -69.024C229.829 -69.1243 73.1344 -68.9239 71.4301 -68.7234ZM445.873 127.17C459.407 128.373 475.849 131.28 488.481 134.789C500.912 138.198 501.112 138.298 500.812 139.1C500.611 139.501 479.057 159.552 452.891 183.713C384.017 247.273 382.012 249.177 373.691 256.997C369.581 260.807 354.042 275.243 339.104 288.978C309.43 316.447 274.642 348.929 244.366 377.601C233.639 387.827 216.496 404.068 206.27 413.692C196.044 423.316 179.502 439.356 169.477 449.281C159.352 459.206 150.93 467.126 150.73 466.826C150.429 466.625 149.326 462.214 148.224 457.001C141.005 424.118 141.005 378.503 148.224 344.117C168.374 248.175 239.554 168.675 332.087 138.599C355.145 131.08 369.18 128.674 405.772 125.666C411.888 125.165 431.838 125.867 445.873 127.17ZM585.024 185.918C606.177 202.159 634.248 233.739 647.882 256.496C655.802 269.729 666.529 291.885 671.442 305.319C673.848 312.036 676.454 317.55 677.056 317.55C677.657 317.55 679.261 316.748 680.564 315.745C681.868 314.743 686.379 311.535 690.489 308.627C694.6 305.82 704.024 299.304 711.342 294.191C718.56 289.078 744.125 271.333 767.985 254.691C791.745 237.949 811.695 224.315 812.196 224.315C812.798 224.315 810.091 226.721 806.281 229.528C790.742 241.458 769.087 258.401 731.593 288.376C684.174 326.171 665.025 340.608 631.842 363.666C618.107 373.29 604.072 383.015 600.864 385.421C597.555 387.726 594.648 389.531 594.448 389.23C594.147 389.03 601.164 381.31 609.886 372.087C640.163 340.407 648.383 331.284 648.383 329.48C648.383 325.269 642.87 327.274 611.891 342.713C603.17 347.124 595.751 350.533 595.55 350.332C595.35 350.031 598.257 347.425 602.067 344.317C610.789 337.199 612.393 335.395 611.39 333.791C610.588 332.487 609.886 332.788 577.204 345.32C570.888 347.726 560.963 351.535 555.149 353.641C544.422 357.651 518.957 367.275 506.827 371.987C502.716 373.591 500.01 374.192 500.01 373.491C500.01 372.889 501.313 368.979 503.017 364.769C504.621 360.558 507.629 352.839 509.534 347.625C511.539 342.412 514.246 335.395 515.549 332.086C516.852 328.778 522.165 315.043 527.379 301.509C532.592 287.975 543.018 260.907 550.637 241.358C558.156 221.808 565.976 201.658 567.881 196.745C573.795 181.206 574.698 179.201 575.5 179.201C576.001 179.201 580.212 182.209 585.024 185.918ZM816.808 221.708C816.808 221.909 816.106 222.41 815.204 222.711C814.402 223.012 814.001 222.911 814.301 222.31C814.903 221.307 816.808 220.906 816.808 221.708ZM685.377 354.242C688.785 373.691 690.088 399.757 688.685 419.206C682.168 506.826 637.356 582.617 562.166 632.844C534.697 651.19 504.722 664.223 473.643 671.441C437.352 679.762 390.534 679.562 354.242 670.94C340.809 667.732 330.382 664.624 329.38 663.621C328.879 663.12 334.693 657.406 342.312 650.789C349.831 644.273 361.962 633.646 369.18 627.33C376.298 620.914 389.632 609.184 398.755 601.264C407.878 593.244 416.9 585.324 418.805 583.62C420.71 581.916 433.141 570.888 446.375 559.158C459.608 547.429 476.35 532.491 483.468 526.075C576.803 442.164 577.304 441.763 608.683 412.79C633.245 390.132 653.998 370.282 669.938 354.042C676.554 347.325 682.269 341.811 682.57 341.711C682.87 341.711 684.174 347.325 685.377 354.242ZM343.616 406.073C343.616 406.173 341.811 410.985 339.505 416.8C337.3 422.614 333.991 431.336 332.087 436.349C330.282 441.261 326.673 450.785 324.066 457.402C321.46 464.019 317.851 473.442 316.046 478.455C314.242 483.367 309.931 494.696 306.522 503.518C303.114 512.34 299.505 521.764 298.502 524.571C297.5 527.278 293.088 538.807 288.677 550.136C276.447 581.815 262.812 617.405 261.308 621.515C260.607 623.621 259.604 625.325 259.103 625.325C257.499 625.325 244.265 615.4 233.939 606.377C203.964 580.412 177.297 542.216 162.159 503.518C159.753 497.403 157.447 492.089 157.046 491.588C156.143 490.586 134.79 504.32 68.9238 548.03C42.7579 565.474 20.7023 580.111 19.8 580.612C16.2912 582.617 21.6046 578.507 48.8733 558.156C64.6129 546.326 81.9566 533.293 87.4705 529.083C92.9844 524.872 102.508 517.654 108.524 513.042C114.639 508.43 124.965 500.511 131.582 495.498C138.198 490.385 151.231 480.961 160.655 474.445C182.109 459.407 250.882 413.892 253.188 413.09C254.09 412.79 239.854 427.426 221.508 445.472C202.059 464.72 188.224 479.157 188.224 480.26C188.224 484.57 192.234 483.067 224.816 465.923C229.829 463.317 247.574 454.194 264.416 445.572C281.259 436.95 305.62 424.519 318.553 417.902C339.806 406.975 343.616 405.17 343.616 406.073Z" fill="#1D1717"/>
</g>
<rect x="417.646" y="456.439" width="85.0673" height="85.0673" transform="rotate(-136 417.646 456.439)" fill="#EB2933"/>
<rect x="416.901" y="413.758" width="24.6975" height="24.6975" transform="rotate(-136 416.901 413.758)" fill="#F9F9F9"/>
</svg>
